<?xml version="1.0" encoding="UTF-8"?>
<svg xmlns="http://www.w3.org/2000/svg" xmlns:xlink="http://www.w3.org/1999/xlink" width="48pt" height="48pt" viewBox="0 0 48 48" version="1.1">
<g id="surface40220178">
<path style=" stroke:none;fill-rule:nonzero;fill:rgb(100%,100%,100%);fill-opacity:1;" d="M 23 2 C 18.386719 2 14.558594 5.515625 14.058594 10 L 12 10 C 9.6875 10 7.761719 11.734375 7.523438 14.035156 L 5.023438 38.035156 C 4.890625 39.296875 5.304688 40.566406 6.15625 41.515625 C 7.007812 42.457031 8.226562 43 9.5 43 L 38.5 43 C 39.773438 43 40.992188 42.457031 41.84375 41.515625 C 42.695312 40.566406 43.105469 39.296875 42.972656 38.035156 L 40.476562 14.035156 C 40.238281 11.734375 38.3125 10 36 10 L 33.953125 10 C 33.984375 10.328125 34 10.664062 34 11 L 34 13 L 36 13 C 36.769531 13 37.414062 13.578125 37.492188 14.347656 L 39.992188 38.347656 C 40.035156 38.769531 39.898438 39.191406 39.613281 39.503906 C 39.332031 39.820312 38.925781 40 38.5 40 L 9.5 40 C 9.074219 40 8.667969 39.820312 8.386719 39.507812 C 8.101562 39.191406 7.964844 38.769531 8.007812 38.347656 L 10.507812 14.347656 C 10.585938 13.578125 11.230469 13 12 13 L 14 13 L 14 16.5 C 13.992188 17.039062 14.277344 17.542969 14.742188 17.816406 C 15.210938 18.089844 15.789062 18.089844 16.257812 17.816406 C 16.722656 17.542969 17.007812 17.039062 17 16.5 L 17 11 C 17 7.667969 19.667969 5 23 5 C 25.988281 5 28.441406 7.152344 28.910156 10 L 19.132812 10 C 19.046875 10.320312 19 10.652344 19 11 L 19 13 L 29 13 L 29 16.5 C 28.992188 17.039062 29.277344 17.542969 29.742188 17.816406 C 30.210938 18.089844 30.789062 18.089844 31.257812 17.816406 C 31.722656 17.542969 32.007812 17.039062 32 16.5 L 32 11 C 32 6.046875 27.953125 2 23 2 Z M 23 2 "/>
</g>
</svg>
