<?xml version="1.0" encoding="UTF-8"?>
<svg xmlns="http://www.w3.org/2000/svg" xmlns:xlink="http://www.w3.org/1999/xlink" width="128pt" height="128pt" viewBox="0 0 128 128" version="1.1">
<g id="surface40232872">
<path style=" stroke:none;fill-rule:nonzero;fill:rgb(100%,100%,100%);fill-opacity:1;" d="M 91 117 C 91 120.867188 87.867188 124 84 124 C 80.132812 124 77 120.867188 77 117 C 77 113.132812 80.132812 110 84 110 C 87.867188 110 91 113.132812 91 117 Z M 91 117 "/>
<path style=" stroke:none;fill-rule:nonzero;fill:rgb(100%,100%,100%);fill-opacity:1;" d="M 51 117 C 51 120.867188 47.867188 124 44 124 C 40.132812 124 37 120.867188 37 117 C 37 113.132812 40.132812 110 44 110 C 47.867188 110 51 113.132812 51 117 Z M 51 117 "/>
<path style=" stroke:none;fill-rule:nonzero;fill:rgb(100%,100%,100%);fill-opacity:1;" d="M 47 24 L 117.300781 24 C 122.101562 24 125.5 28.699219 123.898438 33.199219 L 110.199219 74.398438 C 108.300781 80.101562 102.898438 84 96.898438 84 L 37 84 Z M 47 24 "/>
<path style=" stroke:none;fill-rule:nonzero;fill:rgb(92.54902%,94.117647%,94.509804%);fill-opacity:1;" d="M 84 127 C 78.5 127 74 122.5 74 117 C 74 114.300781 75 111.800781 76.898438 109.898438 C 78.101562 108.699219 80 108.699219 81.101562 109.898438 C 82.300781 111.101562 82.300781 113 81.101562 114.101562 C 80.300781 114.898438 79.898438 115.898438 79.898438 116.898438 C 79.898438 119.101562 81.699219 120.898438 83.898438 120.898438 C 86.101562 120.898438 87.898438 119.101562 87.898438 116.898438 C 87.898438 115.199219 89.199219 113.898438 90.898438 113.898438 C 92.601562 113.898438 93.898438 115.199219 93.898438 116.898438 C 94 122.5 89.5 127 84 127 Z M 84 127 "/>
<path style=" stroke:none;fill-rule:nonzero;fill:rgb(92.54902%,94.117647%,94.509804%);fill-opacity:1;" d="M 91 110.5 C 89.300781 110.5 88 109.199219 88 107.5 C 88 103.898438 85.101562 101 81.5 101 L 44 101 C 38.5 101 34 96.5 34 91 C 34 85.5 38.5 81 44 81 L 96.898438 81 C 101.601562 81 105.800781 78 107.300781 73.5 L 121 32.300781 C 121.398438 31.101562 121.199219 29.800781 120.5 28.699219 C 119.800781 27.601562 118.601562 27 117.300781 27 L 47 27 C 45.300781 27 44 25.699219 44 24 L 44 17 L 37 17 C 35.300781 17 34 15.699219 34 14 C 34 12.300781 35.300781 11 37 11 L 47 11 C 48.699219 11 50 12.300781 50 14 L 50 21 L 117.300781 21 C 120.601562 21 123.5 22.5 125.398438 25.199219 C 127.300781 27.800781 127.800781 31.101562 126.800781 34.199219 L 113 75.398438 C 110.699219 82.398438 104.199219 87 96.898438 87 L 44 87 C 41.800781 87 40 88.800781 40 91 C 40 93.199219 41.800781 95 44 95 L 81.5 95 C 88.398438 95 94 100.601562 94 107.5 C 94 109.101562 92.699219 110.5 91 110.5 Z M 91 110.5 "/>
<path style=" stroke:none;fill-rule:nonzero;fill:rgb(44.313726%,76.078433%,100%);fill-opacity:1;" d="M 35 47 L 15 47 C 13.300781 47 12 45.699219 12 44 C 12 42.300781 13.300781 41 15 41 L 35 41 C 36.699219 41 38 42.300781 38 44 C 38 45.699219 36.699219 47 35 47 Z M 35 47 "/>
<path style=" stroke:none;fill-rule:nonzero;fill:rgb(44.313726%,76.078433%,100%);fill-opacity:1;" d="M 50 67 L 20 67 C 18.300781 67 17 65.699219 17 64 C 17 62.300781 18.300781 61 20 61 L 50 61 C 51.699219 61 53 62.300781 53 64 C 53 65.699219 51.699219 67 50 67 Z M 50 67 "/>
<path style=" stroke:none;fill-rule:nonzero;fill:rgb(44.313726%,76.078433%,100%);fill-opacity:1;" d="M 4 67 C 3.800781 67 3.601562 67 3.398438 66.898438 C 3.199219 66.898438 3 66.800781 2.800781 66.699219 C 2.601562 66.601562 2.5 66.5 2.300781 66.398438 C 2.101562 66.300781 2 66.199219 1.898438 66 C 1.300781 65.601562 1 64.800781 1 64 C 1 63.199219 1.300781 62.398438 1.898438 61.898438 C 2 61.800781 2.199219 61.601562 2.300781 61.5 C 2.5 61.398438 2.601562 61.300781 2.800781 61.199219 C 3 61.101562 3.199219 61.101562 3.398438 61 C 3.800781 60.898438 4.199219 60.898438 4.601562 61 C 4.800781 61 5 61.101562 5.199219 61.199219 C 5.398438 61.300781 5.601562 61.398438 5.699219 61.5 C 5.898438 61.601562 6 61.699219 6.101562 61.898438 C 6.699219 62.398438 7 63.199219 7 64 C 7 64.800781 6.699219 65.601562 6.101562 66.101562 C 6 66.199219 5.800781 66.398438 5.699219 66.5 C 5.5 66.601562 5.398438 66.699219 5.199219 66.800781 C 5 66.898438 4.800781 66.898438 4.601562 67 C 4.398438 67 4.199219 67 4 67 Z M 4 67 "/>
<path style=" stroke:none;fill-rule:nonzero;fill:rgb(92.54902%,94.117647%,94.509804%);fill-opacity:1;" d="M 44 127 C 38.5 127 34 122.5 34 117 C 34 111.5 38.5 107 44 107 C 49.5 107 54 111.5 54 117 C 54 122.5 49.5 127 44 127 Z M 44 113 C 41.800781 113 40 114.800781 40 117 C 40 119.199219 41.800781 121 44 121 C 46.199219 121 48 119.199219 48 117 C 48 114.800781 46.199219 113 44 113 Z M 44 113 "/>
</g>
</svg>
