<svg xmlns="http://www.w3.org/2000/svg"  viewBox="0 0 128 128" width="64px" height="64px"><circle cx="84" cy="117" r="7" fill="#fff"/><circle cx="44" cy="117" r="7" fill="#fff"/><path fill="#fff" d="M47,24h70.3c4.8,0,8.2,4.7,6.6,9.2l-13.7,41.2c-1.9,5.7-7.3,9.6-13.3,9.6H37L47,24z"/><path fill="#444b54" d="M84,127c-5.5,0-10-4.5-10-10c0-2.7,1-5.2,2.9-7.1c1.2-1.2,3.1-1.2,4.2,0c1.2,1.2,1.2,3.1,0,4.2 c-0.8,0.8-1.2,1.8-1.2,2.8c0,2.2,1.8,4,4,4s4-1.8,4-4c0-1.7,1.3-3,3-3s3,1.3,3,3C94,122.5,89.5,127,84,127z"/><path fill="#444b54" d="M91,110.5c-1.7,0-3-1.3-3-3c0-3.6-2.9-6.5-6.5-6.5H44c-5.5,0-10-4.5-10-10s4.5-10,10-10h52.9 c4.7,0,8.9-3,10.4-7.5l13.7-41.2c0.4-1.2,0.2-2.5-0.5-3.6s-1.9-1.7-3.2-1.7H47c-1.7,0-3-1.3-3-3v-7h-7c-1.7,0-3-1.3-3-3s1.3-3,3-3 h10c1.7,0,3,1.3,3,3v7h67.3c3.3,0,6.2,1.5,8.1,4.2c1.9,2.6,2.4,5.9,1.4,9L113,75.4c-2.3,7-8.8,11.6-16.1,11.6H44c-2.2,0-4,1.8-4,4 s1.8,4,4,4h37.5c6.9,0,12.5,5.6,12.5,12.5C94,109.1,92.7,110.5,91,110.5z"/><path fill="#71c2ff" d="M35,47H15c-1.7,0-3-1.3-3-3s1.3-3,3-3h20c1.7,0,3,1.3,3,3S36.7,47,35,47z"/><path fill="#71c2ff" d="M50,67H20c-1.7,0-3-1.3-3-3s1.3-3,3-3h30c1.7,0,3,1.3,3,3S51.7,67,50,67z"/><path fill="#71c2ff" d="M4,67c-0.2,0-0.4,0-0.6-0.1c-0.2,0-0.4-0.1-0.6-0.2c-0.2-0.1-0.3-0.2-0.5-0.3c-0.2-0.1-0.3-0.2-0.4-0.4 C1.3,65.6,1,64.8,1,64s0.3-1.6,0.9-2.1c0.1-0.1,0.3-0.3,0.4-0.4c0.2-0.1,0.3-0.2,0.5-0.3c0.2-0.1,0.4-0.1,0.6-0.2 c0.4-0.1,0.8-0.1,1.2,0c0.2,0,0.4,0.1,0.6,0.2c0.2,0.1,0.4,0.2,0.5,0.3c0.2,0.1,0.3,0.2,0.4,0.4C6.7,62.4,7,63.2,7,64 s-0.3,1.6-0.9,2.1c-0.1,0.1-0.3,0.3-0.4,0.4c-0.2,0.1-0.3,0.2-0.5,0.3c-0.2,0.1-0.4,0.1-0.6,0.2C4.4,67,4.2,67,4,67z"/><path fill="#444b54" d="M44,127c-5.5,0-10-4.5-10-10s4.5-10,10-10s10,4.5,10,10S49.5,127,44,127z M44,113c-2.2,0-4,1.8-4,4s1.8,4,4,4 s4-1.8,4-4S46.2,113,44,113z"/></svg>